# xmcd
#
# Track frame offsets: 
#        182
#        12685
#        28152
#        41145
#        52205
#        65322
#        82497
#        95800
#        106282
#        114517
#
# Disc length: 1708 seconds
#
# Revision: 6
# Processed by: cddbd v1.5.2PL0 Copyright (c) Steve Scherf et al.
# Submitted via: ExactAudioCopy v1.3
#
DISCID=9506aa0a
DTITLE=Various Artist - PGD Presents Great Sounds Sound Savers Country Vol. 6
DYEAR=1995
DGENRE=Country
TTITLE0=Pure Prairie League - Let Me Love You Tonight
TTITLE1=Billy Ray Cyrus - Achy Breaky Heart
TTITLE2=Kentucky Headhunters - Dumas Walker
TTITLE3=Statler Brothers - Flowers On The Wall
TTITLE4=Hank Williams - Jambalaya (On The Bayou)
TTITLE5=Kathy Mattea - Walk The Way The Wind Blows
TTITLE6=Sammy Kershaw - Cadillac Style
TTITLE7=George Jones - Hey Good Lookin'
TTITLE8=Jerry Lee Lewis - Great Balls Of Fire
TTITLE9=Patti Page - Tennessee Waltz
EXTD=Swapped Artists and Titles:::msj
EXTT0=
EXTT1=
EXTT2=
EXTT3=
EXTT4=
EXTT5=
EXTT6=
EXTT7=
EXTT8=
EXTT9=
PLAYORDER=
